<svg width="1920" height="1080" viewBox="0 0 1920 1080" fill="none" xmlns="http://www.w3.org/2000/svg">
<path d="M296.184 527.617C298.683 518.251 296.259 507.844 288.912 500.497C281.565 493.15 271.159 490.726 261.792 493.225C254.931 486.378 244.707 483.274 234.671 485.964C224.634 488.653 217.332 496.453 214.813 505.814C205.453 508.332 197.653 515.635 194.964 525.671C192.275 535.708 195.378 545.931 202.226 552.793C199.727 562.158 202.151 572.565 209.498 579.912C216.845 587.259 227.251 589.683 236.617 587.184C243.478 594.031 253.703 597.135 263.739 594.446C273.776 591.757 281.077 583.957 283.596 574.596C292.957 572.078 300.757 564.775 303.446 554.739C306.135 544.702 303.031 534.479 296.184 527.617V527.617ZM284.401 505.009C289.38 509.988 291.433 516.784 290.561 523.262L267.179 509.762C266.193 509.194 264.979 509.194 263.994 509.762L236.617 525.568V515.204C236.617 514.477 237.006 513.797 237.637 513.433L258.484 501.397C266.744 496.784 277.38 497.988 284.402 505.009H284.401ZM249.205 525.669L261.793 532.937V547.473L249.205 554.741L236.616 547.473V532.937L249.205 525.669ZM220.235 512.766C220.369 503.306 226.731 494.697 236.322 492.126C243.123 490.304 250.035 491.924 255.21 495.918L231.827 509.417C230.842 509.986 230.235 511.038 230.235 512.176V543.788L221.259 538.605C220.629 538.242 220.235 537.564 220.235 536.837V512.765V512.766ZM201.126 527.322C202.948 520.522 207.807 515.345 213.854 512.861V539.86C213.854 540.998 214.46 542.05 215.446 542.619L242.823 558.424L233.847 563.607C233.218 563.97 232.433 563.973 231.804 563.609L210.957 551.573C202.831 546.727 198.557 536.912 201.126 527.322ZM214.009 575.401C209.03 570.422 206.977 563.626 207.849 557.148L231.23 570.648C232.216 571.216 233.43 571.216 234.415 570.648L261.792 554.842V565.206C261.792 565.933 261.403 566.613 260.773 566.977L239.926 579.013C231.666 583.626 221.029 582.422 214.008 575.401H214.009ZM278.174 567.644C278.04 577.104 271.678 585.713 262.087 588.284C255.286 590.106 248.374 588.486 243.2 584.492L266.582 570.993C267.568 570.424 268.175 569.372 268.175 568.234V536.622L277.151 541.805C277.78 542.168 278.174 542.846 278.174 543.574V567.645V567.644ZM297.283 553.088C295.461 559.888 290.602 565.065 284.556 567.549V540.55C284.556 539.412 283.949 538.36 282.963 537.792L255.586 521.986L264.562 516.803C265.192 516.44 265.976 516.437 266.606 516.801L287.453 528.837C295.578 533.683 299.853 543.498 297.283 553.088Z" fill="white"/>
<path d="M1493.57 572.123C1475.52 572.123 1460.83 557.429 1460.83 539.38C1460.83 521.33 1475.52 506.637 1493.57 506.637C1511.44 506.637 1521.51 520.06 1523.23 529.493H1509.9C1506.99 522.6 1500.37 518.428 1493.21 518.428H1492.84C1482.23 518.428 1473.71 527.861 1473.71 539.38C1473.71 550.899 1482.23 560.331 1492.84 560.331H1493.21C1500.37 560.331 1506.99 556.159 1509.9 549.266H1523.23C1521.51 558.699 1511.44 572.123 1493.57 572.123Z" fill="white"/>
<path d="M1551.55 572.119C1537.58 572.119 1527.33 561.507 1527.33 548.356C1527.33 535.204 1537.58 524.773 1551.55 524.773C1565.52 524.773 1575.77 535.204 1575.77 548.356C1575.77 561.507 1565.52 572.119 1551.55 572.119ZM1551.73 561.689C1558.35 561.689 1563.98 556.337 1563.98 548.356C1563.98 540.374 1558.35 535.204 1551.73 535.204H1551.37C1544.75 535.204 1539.12 540.374 1539.12 548.356C1539.12 556.337 1544.75 561.689 1551.37 561.689H1551.73Z" fill="white"/>
<path d="M1602.35 572.121C1589.65 572.121 1579.86 561.69 1579.86 548.448C1579.86 535.206 1589.65 524.775 1602.35 524.775C1608.7 524.775 1613.51 527.406 1616.14 530.489V507.633H1627.93V571.123H1616.14V566.407C1613.51 569.491 1608.7 572.121 1602.35 572.121ZM1604.25 561.69C1610.87 561.69 1616.5 556.339 1616.5 548.357C1616.5 540.376 1610.87 535.206 1604.25 535.206H1603.89C1597.27 535.206 1591.65 540.376 1591.65 548.357C1591.65 556.339 1597.27 561.69 1603.89 561.69H1604.25Z" fill="white"/>
<path d="M1658.26 572.119C1644.83 572.119 1635.04 562.414 1635.04 548.628C1635.04 534.841 1645.38 524.773 1658.26 524.773C1671.14 524.773 1681.12 534.025 1681.12 549.353C1681.12 550.351 1681.12 551.349 1681.02 552.437H1646.83C1647.01 556.609 1651 562.596 1657.81 562.596H1658.17C1663.16 562.596 1666.97 559.875 1668.51 556.881H1680.48C1678.39 563.865 1671.23 572.119 1658.26 572.119ZM1669.05 543.821C1668.69 539.013 1664.52 534.297 1658.17 534.297H1657.81C1652 534.297 1647.83 538.923 1646.92 543.821H1669.05Z" fill="white"/>
<path d="M1680.42 571.128L1696.83 548.271L1680.87 525.777H1694.3L1703.46 539.11L1712.62 525.777H1725.77L1709.81 547.999L1726.22 571.128H1712.71L1703.18 557.16L1693.48 571.128H1680.42Z" fill="white"/>
</svg>
