<svg width="3122" height="912" viewBox="0 0 3122 912" fill="none" xmlns="http://www.w3.org/2000/svg">
<path d="M441 712V12H576V712H441ZM1.78814e-06 712V12H135V712H1.78814e-06ZM117 409V300H464V409H117ZM714.016 912L827.016 656H799.016L596.016 216H743.016L886.016 538H890.016L1018.02 216H1162.02L857.016 912H714.016ZM1351.22 724C1304.55 724 1263.89 713 1229.22 691C1194.55 668.333 1167.55 637.333 1148.22 598C1128.89 558.667 1119.22 514 1119.22 464C1119.22 414 1128.89 369.333 1148.22 330C1167.55 290.667 1194.89 260 1230.22 238C1265.55 215.333 1307.55 204 1356.22 204C1394.89 204 1428.22 211.667 1456.22 227C1484.89 241.667 1507.55 259.333 1524.22 280V12H1659.22V712H1545.22L1538.22 625H1534.22C1521.55 645.667 1506.22 663.333 1488.22 678C1470.22 692.667 1449.89 704 1427.22 712C1404.55 720 1379.22 724 1351.22 724ZM1391.22 613C1418.55 613 1442.22 606.667 1462.22 594C1482.89 581.333 1498.55 564 1509.22 542C1520.55 519.333 1526.22 493 1526.22 463C1526.22 433.667 1520.55 408 1509.22 386C1498.55 363.333 1482.89 345.667 1462.22 333C1441.55 320.333 1417.55 314 1390.22 314C1363.55 314 1339.89 320.333 1319.22 333C1299.22 345.667 1283.55 363.333 1272.22 386C1261.55 408 1256.22 433.667 1256.22 463C1256.22 493 1261.55 519.333 1272.22 542C1283.55 564 1299.22 581.333 1319.22 594C1339.89 606.667 1363.89 613 1391.22 613ZM1714.57 712V216H1829.57L1841.57 325H1845.57C1860.24 289.667 1876.24 263.667 1893.57 247C1910.9 229.667 1930.57 218.333 1952.57 213C1975.24 207 2000.57 204 2028.57 204V347H1991.57C1968.9 347 1948.57 349.667 1930.57 355C1913.24 359.667 1898.57 367.667 1886.57 379C1874.57 389.667 1865.24 404 1858.57 422C1852.57 440 1849.57 461.667 1849.57 487V712H1714.57ZM2059.95 712V216H2194.95V712H2059.95ZM2127.95 153C2103.28 153 2082.95 146 2066.95 132C2051.61 117.333 2043.95 98.9999 2043.95 76.9999C2043.95 55 2051.61 36.6666 2066.95 21.9999C2082.95 7.33331 2103.28 -1.23978e-05 2127.95 -1.23978e-05C2152.61 -1.23978e-05 2172.61 7.33331 2187.95 21.9999C2203.28 36.6666 2210.95 55 2210.95 76.9999C2210.95 98.3333 2203.28 116.333 2187.95 131C2172.61 145.667 2152.61 153 2127.95 153ZM2266.02 712V12H2401.02V712H2266.02ZM2465.51 712V12H2600.51V712H2465.51ZM2817.12 724C2777.78 724 2745.12 717.333 2719.12 704C2693.78 690.667 2675.12 672.667 2663.12 650C2651.12 627.333 2645.12 602.333 2645.12 575C2645.12 544.333 2652.78 517.333 2668.12 494C2684.12 470.667 2708.12 452.667 2740.12 440C2772.12 426.667 2812.45 420 2861.12 420H2986.12C2986.12 395.333 2982.45 375 2975.12 359C2968.45 343 2957.78 331 2943.12 323C2929.12 315 2911.12 311 2889.12 311C2863.12 311 2840.78 317 2822.12 329C2804.12 340.333 2792.78 358.333 2788.12 383H2657.12C2661.12 346.333 2673.12 314.667 2693.12 288C2713.78 261.333 2740.78 240.667 2774.12 226C2808.12 211.333 2846.45 204 2889.12 204C2937.12 204 2978.45 212 3013.12 228C3047.78 243.333 3074.45 266.333 3093.12 297C3111.78 327 3121.12 363.667 3121.12 407V712H3009.12L2995.12 635H2991.12C2980.45 649.667 2968.78 662.667 2956.12 674C2944.12 685.333 2930.78 694.667 2916.12 702C2901.45 709.333 2885.78 714.667 2869.12 718C2852.45 722 2835.12 724 2817.12 724ZM2861.12 620C2879.78 620 2895.78 617 2909.12 611C2923.12 604.333 2935.12 595.667 2945.12 585C2955.12 574.333 2962.78 562 2968.12 548C2974.12 533.333 2978.12 518.333 2980.12 503H2876.12C2855.45 503 2838.45 505.667 2825.12 511C2812.45 515.667 2803.12 522.667 2797.12 532C2791.12 540.667 2788.12 551 2788.12 563C2788.12 575 2791.12 585.333 2797.12 594C2803.12 602.667 2811.78 609.333 2823.12 614C2834.45 618 2847.12 620 2861.12 620Z" fill="white"/>
</svg>
