<svg width="961" height="396" viewBox="0 0 961 396" fill="none" xmlns="http://www.w3.org/2000/svg">
<path d="M145.8 252V42H186.3V252H145.8ZM13.5 252V42H54V252H13.5ZM48.6 161.1V128.4H152.7V161.1H48.6ZM227.705 312L261.605 235.2H253.205L192.305 103.2H236.405L279.305 199.8H280.505L318.905 103.2H362.105L270.605 312H227.705ZM418.866 255.6C404.866 255.6 392.666 252.3 382.266 245.7C371.866 238.9 363.766 229.6 357.966 217.8C352.166 206 349.266 192.6 349.266 177.6C349.266 162.6 352.166 149.2 357.966 137.4C363.766 125.6 371.966 116.4 382.566 109.8C393.166 103 405.766 99.6 420.366 99.6C431.966 99.6 441.966 101.9 450.366 106.5C458.966 110.9 465.766 116.2 470.766 122.4V42H511.266V252H477.066L474.966 225.9H473.766C469.966 232.1 465.366 237.4 459.966 241.8C454.566 246.2 448.466 249.6 441.666 252C434.866 254.4 427.266 255.6 418.866 255.6ZM430.866 222.3C439.066 222.3 446.166 220.4 452.166 216.6C458.366 212.8 463.066 207.6 466.266 201C469.666 194.2 471.366 186.3 471.366 177.3C471.366 168.5 469.666 160.8 466.266 154.2C463.066 147.4 458.366 142.1 452.166 138.3C445.966 134.5 438.766 132.6 430.566 132.6C422.566 132.6 415.466 134.5 409.266 138.3C403.266 142.1 398.566 147.4 395.166 154.2C391.966 160.8 390.366 168.5 390.366 177.3C390.366 186.3 391.966 194.2 395.166 201C398.566 207.6 403.266 212.8 409.266 216.6C415.466 220.4 422.666 222.3 430.866 222.3ZM527.871 252V103.2H562.371L565.971 135.9H567.171C571.571 125.3 576.371 117.5 581.571 112.5C586.771 107.3 592.671 103.9 599.271 102.3C606.071 100.5 613.671 99.6 622.071 99.6V142.5H610.971C604.171 142.5 598.071 143.3 592.671 144.9C587.471 146.3 583.071 148.7 579.471 152.1C575.871 155.3 573.071 159.6 571.071 165C569.271 170.4 568.371 176.9 568.371 184.5V252H527.871ZM631.484 252V103.2H671.984V252H631.484ZM651.884 84.3C644.484 84.3 638.384 82.2 633.584 78C628.984 73.6 626.684 68.1 626.684 61.5C626.684 54.9 628.984 49.4 633.584 45C638.384 40.6 644.484 38.4 651.884 38.4C659.284 38.4 665.284 40.6 669.884 45C674.484 49.4 676.784 54.9 676.784 61.5C676.784 67.9 674.484 73.3 669.884 77.7C665.284 82.1 659.284 84.3 651.884 84.3ZM693.305 252V42H733.805V252H693.305ZM753.152 252V42H793.652V252H753.152ZM858.635 255.6C846.835 255.6 837.035 253.6 829.235 249.6C821.635 245.6 816.035 240.2 812.435 233.4C808.835 226.6 807.035 219.1 807.035 210.9C807.035 201.7 809.335 193.6 813.935 186.6C818.735 179.6 825.935 174.2 835.535 170.4C845.135 166.4 857.235 164.4 871.835 164.4H909.335C909.335 157 908.235 150.9 906.035 146.1C904.035 141.3 900.835 137.7 896.435 135.3C892.235 132.9 886.835 131.7 880.235 131.7C872.435 131.7 865.735 133.5 860.135 137.1C854.735 140.5 851.335 145.9 849.935 153.3H810.635C811.835 142.3 815.435 132.8 821.435 124.8C827.635 116.8 835.735 110.6 845.735 106.2C855.935 101.8 867.435 99.6 880.235 99.6C894.635 99.6 907.035 102 917.435 106.8C927.835 111.4 935.835 118.3 941.435 127.5C947.035 136.5 949.835 147.5 949.835 160.5V252H916.235L912.035 228.9H910.835C907.635 233.3 904.135 237.2 900.335 240.6C896.735 244 892.735 246.8 888.335 249C883.935 251.2 879.235 252.8 874.235 253.8C869.235 255 864.035 255.6 858.635 255.6ZM871.835 224.4C877.435 224.4 882.235 223.5 886.235 221.7C890.435 219.7 894.035 217.1 897.035 213.9C900.035 210.7 902.335 207 903.935 202.8C905.735 198.4 906.935 193.9 907.535 189.3H876.335C870.135 189.3 865.035 190.1 861.035 191.7C857.235 193.1 854.435 195.2 852.635 198C850.835 200.6 849.935 203.7 849.935 207.3C849.935 210.9 850.835 214 852.635 216.6C854.435 219.2 857.035 221.2 860.435 222.6C863.835 223.8 867.635 224.4 871.835 224.4Z" fill="black"/>
<path d="M294.5 380L320.1 310H333.5L359.1 380H346.4L326.7 324L307 380H294.5ZM305.9 363.5L309.1 354H343.6L346.8 363.5H305.9ZM364.729 380V310H376.729V380H364.729ZM409.317 380V324.1C409.317 320.233 409.951 317.133 411.217 314.8C412.551 312.4 414.451 310.667 416.917 309.6C419.384 308.533 422.317 308 425.717 308H431.717V318.2H427.517C425.317 318.2 423.717 318.667 422.717 319.6C421.784 320.467 421.317 322 421.317 324.2V380H409.317ZM402.117 339.7V329.6H432.717V339.7H402.117ZM460.595 381.2C455.795 381.2 451.461 380.1 447.595 377.9C443.795 375.633 440.795 372.533 438.595 368.6C436.461 364.6 435.395 360.033 435.395 354.9C435.395 349.633 436.495 345.033 438.695 341.1C440.895 337.1 443.895 334 447.695 331.8C451.561 329.533 455.895 328.4 460.695 328.4C465.495 328.4 469.795 329.533 473.595 331.8C477.461 334 480.461 337.067 482.595 341C484.795 344.933 485.895 349.533 485.895 354.8C485.895 360.067 484.795 364.667 482.595 368.6C480.395 372.533 477.361 375.633 473.495 377.9C469.695 380.1 465.395 381.2 460.595 381.2ZM460.595 370.9C462.995 370.9 465.161 370.3 467.095 369.1C469.095 367.9 470.695 366.1 471.895 363.7C473.095 361.3 473.695 358.333 473.695 354.8C473.695 351.267 473.095 348.333 471.895 346C470.761 343.6 469.195 341.8 467.195 340.6C465.261 339.4 463.095 338.8 460.695 338.8C458.361 338.8 456.195 339.4 454.195 340.6C452.195 341.8 450.595 343.6 449.395 346C448.195 348.333 447.595 351.267 447.595 354.8C447.595 358.333 448.195 361.3 449.395 363.7C450.595 366.1 452.161 367.9 454.095 369.1C456.095 370.3 458.261 370.9 460.595 370.9ZM493.641 380V329.6H504.341L505.441 339C506.641 336.8 508.141 334.933 509.941 333.4C511.741 331.8 513.841 330.567 516.241 329.7C518.708 328.833 521.408 328.4 524.341 328.4V341.1H520.141C518.141 341.1 516.241 341.367 514.441 341.9C512.641 342.367 511.075 343.167 509.741 344.3C508.475 345.367 507.475 346.867 506.741 348.8C506.008 350.667 505.641 353.033 505.641 355.9V380H493.641ZM572.902 381.2C568.368 381.2 564.235 380.4 560.502 378.8C556.768 377.133 553.768 374.633 551.502 371.3C549.302 367.9 548.135 363.633 548.002 358.5H559.802C559.868 360.833 560.402 362.967 561.402 364.9C562.468 366.767 563.968 368.267 565.902 369.4C567.835 370.467 570.168 371 572.902 371C575.502 371 577.702 370.5 579.502 369.5C581.368 368.5 582.768 367.133 583.702 365.4C584.635 363.667 585.102 361.733 585.102 359.6C585.102 357 584.468 354.867 583.202 353.2C581.935 351.467 580.202 350.167 578.002 349.3C575.802 348.433 573.302 348 570.502 348H565.302V338.1H570.502C574.168 338.1 577.168 337.267 579.502 335.6C581.835 333.867 583.002 331.367 583.002 328.1C583.002 325.367 582.102 323.167 580.302 321.5C578.568 319.833 576.068 319 572.802 319C569.402 319 566.702 320 564.702 322C562.768 324 561.702 326.467 561.502 329.4H549.702C549.902 325.2 550.968 321.567 552.902 318.5C554.902 315.367 557.602 312.967 561.002 311.3C564.402 309.633 568.368 308.8 572.902 308.8C577.635 308.8 581.635 309.633 584.902 311.3C588.168 312.967 590.635 315.2 592.302 318C594.035 320.8 594.902 323.867 594.902 327.2C594.902 329.8 594.402 332.167 593.402 334.3C592.402 336.433 591.035 338.233 589.302 339.7C587.635 341.1 585.668 342.133 583.402 342.8C586.002 343.333 588.302 344.367 590.302 345.9C592.368 347.433 593.968 349.4 595.102 351.8C596.302 354.133 596.902 356.867 596.902 360C596.902 363.8 595.968 367.333 594.102 370.6C592.302 373.8 589.602 376.367 586.002 378.3C582.468 380.233 578.102 381.2 572.902 381.2ZM606.065 380V310H628.665C636.798 310 643.498 311.433 648.765 314.3C654.098 317.167 658.032 321.233 660.565 326.5C663.165 331.7 664.465 337.9 664.465 345.1C664.465 352.167 663.165 358.333 660.565 363.6C658.032 368.8 654.098 372.833 648.765 375.7C643.498 378.567 636.798 380 628.665 380H606.065ZM618.065 369.8H628.065C634.132 369.8 638.898 368.833 642.365 366.9C645.898 364.9 648.398 362.067 649.865 358.4C651.398 354.667 652.165 350.233 652.165 345.1C652.165 339.9 651.398 335.467 649.865 331.8C648.398 328.067 645.898 325.2 642.365 323.2C638.898 321.133 634.132 320.1 628.065 320.1H618.065V369.8Z" fill="black"/>
</svg>
